<svg width="30" height="30" viewBox="0 0 30 30" fill="none" xmlns="http://www.w3.org/2000/svg">
<path d="M27.3751 23.4417L27.0917 23.1917C26.2879 22.4755 25.5844 21.6542 25.0001 20.75C24.3619 19.5021 23.9795 18.1394 23.8751 16.7417V12.625C23.8806 10.4297 23.0843 8.3079 21.6357 6.65832C20.1871 5.00873 18.186 3.94489 16.0084 3.66667V2.59167C16.0084 2.29662 15.8912 2.01365 15.6826 1.80502C15.4739 1.59638 15.191 1.47917 14.8959 1.47917C14.6009 1.47917 14.3179 1.59638 14.1093 1.80502C13.9006 2.01365 13.7834 2.29662 13.7834 2.59167V3.68334C11.6253 3.98161 9.64839 5.05189 8.21885 6.69593C6.78932 8.33997 6.00402 10.4464 6.00841 12.625V16.7417C5.90404 18.1394 5.52156 19.5021 4.88341 20.75C4.30915 21.652 3.61691 22.4731 2.82508 23.1917L2.54175 23.4417V25.7917H27.3751V23.4417Z" fill="#023E8A"/>
<path d="M12.7666 26.6667C12.8397 27.1949 13.1014 27.6789 13.5035 28.0291C13.9056 28.3794 14.4208 28.5724 14.9541 28.5724C15.4874 28.5724 16.0026 28.3794 16.4047 28.0291C16.8068 27.6789 17.0685 27.1949 17.1416 26.6667H12.7666Z" fill="#969696"/>
</svg>
