<svg width="30" height="30" viewBox="0 0 30 30" fill="none" xmlns="http://www.w3.org/2000/svg">
<path d="M23.8375 6.1625C21.7865 4.09812 19.0796 2.81401 16.1833 2.53155C13.287 2.24909 10.383 2.98597 7.97176 4.61516C5.56055 6.24435 3.79332 8.66376 2.97473 11.4563C2.15614 14.2488 2.33749 17.2394 3.48753 19.9125C3.60739 20.161 3.64672 20.4406 3.60003 20.7125L2.50003 26C2.45765 26.2027 2.4663 26.4128 2.52521 26.6113C2.58412 26.8099 2.69144 26.9907 2.83753 27.1375C2.95728 27.2564 3.09987 27.3498 3.25669 27.4121C3.41352 27.4744 3.58133 27.5043 3.75003 27.5H4.00003L9.35003 26.425C9.62194 26.3923 9.89768 26.4311 10.15 26.5375C12.8232 27.6875 15.8138 27.8689 18.6063 27.0503C21.3988 26.2317 23.8182 24.4645 25.4474 22.0533C27.0766 19.6421 27.8134 16.738 27.531 13.8417C27.2485 10.9455 25.9644 8.23848 23.9 6.1875L23.8375 6.1625ZM10 16.25C9.7528 16.25 9.51113 16.1767 9.30556 16.0393C9.1 15.902 8.93979 15.7068 8.84518 15.4784C8.75057 15.2499 8.72581 14.9986 8.77404 14.7561C8.82228 14.5137 8.94133 14.2909 9.11614 14.1161C9.29096 13.9413 9.51369 13.8222 9.75616 13.774C9.99864 13.7258 10.25 13.7505 10.4784 13.8451C10.7068 13.9398 10.902 14.1 11.0394 14.3055C11.1767 14.5111 11.25 14.7528 11.25 15C11.25 15.3315 11.1183 15.6495 10.8839 15.8839C10.6495 16.1183 10.3315 16.25 10 16.25ZM15 16.25C14.7528 16.25 14.5111 16.1767 14.3056 16.0393C14.1 15.902 13.9398 15.7068 13.8452 15.4784C13.7506 15.2499 13.7258 14.9986 13.774 14.7561C13.8223 14.5137 13.9413 14.2909 14.1161 14.1161C14.291 13.9413 14.5137 13.8222 14.7562 13.774C14.9986 13.7258 15.25 13.7505 15.4784 13.8451C15.7068 13.9398 15.902 14.1 16.0394 14.3055C16.1767 14.5111 16.25 14.7528 16.25 15C16.25 15.3315 16.1183 15.6495 15.8839 15.8839C15.6495 16.1183 15.3315 16.25 15 16.25ZM20 16.25C19.7528 16.25 19.5111 16.1767 19.3056 16.0393C19.1 15.902 18.9398 15.7068 18.8452 15.4784C18.7506 15.2499 18.7258 14.9986 18.774 14.7561C18.8223 14.5137 18.9413 14.2909 19.1161 14.1161C19.291 13.9413 19.5137 13.8222 19.7562 13.774C19.9986 13.7258 20.25 13.7505 20.4784 13.8451C20.7068 13.9398 20.902 14.1 21.0394 14.3055C21.1767 14.5111 21.25 14.7528 21.25 15C21.25 15.3315 21.1183 15.6495 20.8839 15.8839C20.6495 16.1183 20.3315 16.25 20 16.25Z" fill="#023E8A"/>
</svg>
